PathFileType	4	(X/Y/Z)	walk-thru1-2-TP.trc
DataRate	CameraRate	NumFrames	NumMarkers	Units	OrigDataRate	OrigDataStartFrame	OrigNumFrames
120.00	120.00	       4	60	mm	120.00	377	       502
Frame#	Time	Top.Head			Front.Head			Rear.Head			Jaw			C7			R.Clavicle			L.Clavicle			R.Shoulder			L.Shoulder			R.Scapula			L.Scapula			R.Scap.Inf			R.Biceps.Lateral			R.Elbow			R.Elbow.Medial			R.Forearm			R.Ulna			R.Radius			R.Wrist			R.Thumb.M1			R.Thumb.M2			R.Thumb.M3			R.Finger3.M1			R.Finger3.M2			R.Finger3.M3			L.Biceps.Lateral			L.Elbow			L.Elbow.Medial			L.Forearm			L.Ulna			L.Radius			L.Wrist			L.Thumb.M1			L.Thumb.M2			L.Thumb.M3			L.Finger3.M1			L.Finger3.M2			L.Finger3.M3			V.Sacral			R.ASIS			L.ASIS			R.Thigh			R.Thigh.Front			R.Knee			R.Knee.Medial			R.Shank			R.Ankle			R.Ankle.Medial			R.Heel			R.Toe			R.MedFoot			L.Thigh			L.Knee			L.Knee.Medial			L.Shank			L.Ankle			L.Ankle.Medial			L.Heel			L.Toe			L.MedFoot			V_mid_ASIS			V_R_Knee_JC			V_L_Knee_JC			V_R_Elbow_JC			V_L_Elbow_JC			V_R_Ankle_JC			V_L_Ankle_JC			V_R_Wrist_JC			V_L_Wrist_JC			V_R_ScaTrpz_1stMC_JC			V_R_1stMC_1stPP_JC			V_R_1stPP_1stDP_JC			V_R_LunCap_3rdMC_JC			V_R_3rdMC_3rdPP_JC			V_R_3rdPP_3rdMP_JC			V_R_3rdMP_3rdDP_JC			V_L_ScaTrpz_1stMC_JC			V_L_1stMC_1stPP_JC			V_L_1stPP_1stDP_JC			V_L_LunCap_3rdMC_JC			V_L_3rdMC_3rdPP_JC			V_L_3rdPP_3rdMP_JC			V_L_3rdMP_3rdPP_JC			V_ROOT_JC			V_R_Hip_JC			V_L_Hip_JC			V_R_GlenHum_JC			V_L_GlenHum_JC			V_ForeHead_Ctr			V_Vertex			V_Sagit_Lambdoid_Suture			V_R_FrontoTemp			V_L_FrontoTemporal			V_R_ParietalOccip			V_L_ParietalOcciptal			V_R_Temporal			V_L_Temporal			V_mid_FrontRearHead			V_mid_RLGlenHumCtrs			V_C7_vert			V_C1_vert			V_Mid_Hip			
		X1	Y1	Z1	X2	Y2	Z2	X3	Y3	Z3	X4	Y4	Z4	X5	Y5	Z5	X6	Y6	Z6	X7	Y7	Z7	X8	Y8	Z8	X9	Y9	Z9	X10	Y10	Z10	X11	Y11	Z11	X12	Y12	Z12	X13	Y13	Z13	X14	Y14	Z14	X15	Y15	Z15	X16	Y16	Z16	X17	Y17	Z17	X18	Y18	Z18	X19	Y19	Z19	X20	Y20	Z20	X21	Y21	Z21	X22	Y22	Z22	X23	Y23	Z23	X24	Y24	Z24	X25	Y25	Z25	X26	Y26	Z26	X27	Y27	Z27	X28	Y28	Z28	X29	Y29	Z29	X30	Y30	Z30	X31	Y31	Z31	X32	Y32	Z32	X33	Y33	Z33	X34	Y34	Z34	X35	Y35	Z35	X36	Y36	Z36	X37	Y37	Z37	X38	Y38	Z38	X39	Y39	Z39	X40	Y40	Z40	X41	Y41	Z41	X42	Y42	Z42	X43	Y43	Z43	X44	Y44	Z44	X45	Y45	Z45	X46	Y46	Z46	X47	Y47	Z47	X48	Y48	Z48	X49	Y49	Z49	X50	Y50	Z50	X51	Y51	Z51	X52	Y52	Z52	X53	Y53	Z53	X54	Y54	Z54	X55	Y55	Z55	X56	Y56	Z56	X57	Y57	Z57	X58	Y58	Z58	X59	Y59	Z59	X60	Y60	Z60	

377	3.133	1325.12097	37.91382	1778.31299	1423.96497	26.00471	1656.26514	1191.03259	36.46528	1709.68994	1328.80164	27.73203	1483.85632	1099.57861	17.96893	1580.34802	1206.62805	-93.11565	1501.58435	1194.82800	152.03337	1490.66077	1164.49854	-203.24310	1491.72974	1138.62415	251.49725	1489.27417	1042.03784	-83.53654	1489.44312	1023.49298	107.81973	1484.44299	1013.60699	-87.91792	1399.45837	1134.06702	-239.11816	1350.62305	1080.89795	-272.40424	1164.85046	1076.26208	-173.37589	1157.79395	1176.36304	-257.56302	1102.96533	1125.28906	-267.68829	965.14227	1236.52234	-242.28709	940.92401	1246.74841	-291.24887	918.96393	1260.67615	-241.15477	896.42316	1274.37183	-226.51450	846.46936	1282.91785	-238.49075	795.06201	1277.73364	-317.70798	846.67657	1251.21204	-290.45792	776.35828	1215.04907	-239.12497	796.11987	1074.85217	273.21338	1347.24097	1003.90381	278.20346	1179.66296	997.24536	183.39456	1156.24780	1078.30042	282.23087	1090.32886	1006.14136	299.49850	992.96039	1097.14966	284.13086	925.73682	1070.25671	322.86011	894.56750	1112.73938	282.99139	867.49902	1127.82959	257.03259	822.66248	1128.44971	258.79007	771.69055	1082.55493	334.14526	794.16278	1076.76624	299.84656	735.46460	1070.81494	239.23175	738.92511	986.69165	17.52521	1125.89783	1187.27759	-162.09558	1064.81897	1168.91809	188.68607	1079.48840	1184.13403	-141.62585	684.77472	1252.36060	-46.27363	590.83405	1212.45911	-106.89673	528.11755	1190.69128	0.58584	528.91852	1212.88293	-60.79970	312.12384	1119.08459	-92.52168	84.22411	1129.26550	10.78049	107.54470	1054.15381	-47.34134	48.58638	1286.89099	-48.49123	41.10733	1224.09326	-12.30617	78.95335	1214.23108	202.53984	694.01941	1237.99280	192.66913	542.95624	1234.13367	80.24996	521.83966	1137.13867	148.51796	354.07114	914.21509	166.48056	211.44621	972.01752	75.27013	205.25069	867.50037	93.91194	207.89267	1029.47534	155.99364	74.54043	1014.15784	116.42543	141.36534																																																																																																																															
378	3.142	1330.79492	35.57499	1779.64624	1429.25220	25.90940	1656.43201	1196.63660	35.45282	1711.34094	1334.99683	25.94668	1484.17603	1104.84558	17.71543	1581.79089	1211.54602	-94.19506	1502.40723	1200.03430	151.78781	1491.06921	1171.05627	-203.07274	1491.40710	1143.74341	251.74698	1489.47205	1047.49695	-84.30264	1489.72375	1029.96375	109.27237	1484.87756	1019.13147	-88.65030	1399.08423	1139.81348	-238.85347	1350.96692	1087.31396	-272.39389	1165.68262	1079.50293	-175.49403	1158.29163	1184.45825	-257.09921	1104.23682	1134.26660	-268.86942	966.56964	1243.83777	-242.30878	941.44702	1256.47815	-290.58942	920.64160	1270.01245	-241.56618	896.08435	1279.78406	-226.59142	844.22760	1288.39136	-240.52556	795.38574	1285.63818	-318.00336	848.04547	1255.92529	-292.03259	776.25647	1220.37000	-244.61832	798.71161	1078.06995	271.91934	1347.28564	1007.15729	276.44400	1180.73035	1001.90826	180.66872	1157.77820	1082.49756	280.22189	1091.53357	1007.68243	297.37112	991.98871	1099.19690	282.78674	926.61780	1072.62268	322.19492	895.99744	1116.63086	281.12802	868.17188	1130.67139	255.05792	821.84381	1133.63818	256.00769	772.24469	1086.06812	330.71683	793.17566	1076.49377	297.17419	735.74469	1072.17383	238.41791	739.55066	990.97681	17.67058	1126.23560	1193.42529	-163.13516	1063.97241	1173.51392	189.12976	1079.85583	1186.54517	-141.87196	684.59991	1254.91113	-46.05532	590.27148	1214.23877	-107.74615	528.54810	1193.24573	0.53191	529.28693	1214.04907	-61.49890	310.49838	1119.06592	-92.22595	84.24176	1129.26550	10.78049	107.54470	1053.36877	-47.17747	48.29205	1287.30249	-47.49710	40.77670	1224.30933	-12.65008	78.95782	1221.53882	201.32201	694.94543	1247.28687	192.47981	544.23828	1243.50574	78.95010	523.70605	1149.71265	149.21500	353.54218	929.38721	166.77574	206.59834	987.44098	77.86037	201.96519	881.02972	94.27542	200.07956	1049.08386	156.01408	74.04568	1029.41309	116.77054	139.74156																																																																																																																															
379	3.150	1336.63403	36.51178	1781.18604	1434.63440	26.11835	1657.36316	1201.77454	36.28614	1711.63477	1339.20642	27.45447	1484.99292	1110.22815	17.83465	1581.50159	1217.06116	-94.82909	1502.65405	1205.29224	151.16988	1492.02368	1175.42139	-202.65013	1490.37134	1148.22583	250.40984	1489.30579	1053.47656	-84.57620	1489.03015	1035.79675	107.18642	1484.90894	1024.19238	-89.20902	1399.26501	1145.56104	-239.36017	1351.34900	1092.70654	-273.80576	1167.15576	1091.40332	-173.87036	1155.57410	1190.95715	-256.89813	1104.90979	1143.35657	-270.50925	966.43866	1252.05420	-242.58688	942.47479	1262.37878	-291.18515	921.19202	1276.61792	-241.03983	895.96600	1286.70776	-226.22910	845.03851	1291.47107	-240.47844	793.91675	1292.57141	-319.16443	847.90869	1261.41736	-295.88071	777.00409	1228.68506	-244.42552	799.87256	1082.96777	271.66928	1346.93872	1011.52106	275.61816	1181.23987	1006.38971	179.09973	1159.92627	1086.52026	278.98807	1091.23950	1012.20374	295.84799	993.38727	1102.31543	280.01675	926.56812	1075.21399	320.67252	895.60156	1118.21106	277.59763	867.50751	1132.23352	253.74496	823.26190	1133.35779	254.48073	772.49597	1087.90527	329.95621	794.07043	1081.01843	294.88608	736.27765	1074.58740	236.43684	739.58606	996.44659	17.73685	1126.79102	1198.37256	-162.18179	1065.63428	1178.85864	188.20029	1080.06714	1189.40442	-142.14058	684.75104	1256.59973	-46.59958	589.69897	1215.67786	-108.39352	527.98279	1195.59937	0.09931	528.38605	1214.72168	-60.86080	310.81802	1118.79797	-92.56275	84.46082	1129.26550	10.78049	107.54470	1053.75000	-46.90237	48.47185	1287.61426	-47.16458	40.50505	1224.05383	-12.41779	79.06230	1229.18420	200.74164	696.67389	1255.71875	191.37082	545.20001	1251.73877	79.27782	525.40558	1161.47742	147.47301	353.65848	943.93671	167.10669	202.04651	1002.98022	76.70121	198.39017	896.04584	94.99972	193.54840	1067.72302	157.19911	73.44086	1046.73804	117.70289	138.12772																																																																																																																															
380	3.158	1340.75952	36.61148	1780.54846	1439.93359	26.41284	1657.53577	1207.43542	36.84829	1711.10474	1344.96729	26.07266	1485.09644	1114.13623	15.49573	1581.83752	1222.59875	-94.94753	1502.45032	1210.56018	151.22299	1492.47974	1181.61694	-204.53612	1491.24060	1152.60730	249.99577	1490.47827	1058.13831	-85.86559	1489.34998	1039.61804	106.29591	1485.16626	1029.74719	-88.88335	1399.41101	1151.19495	-240.48868	1350.64807	1101.23047	-274.60449	1165.86096	1093.75391	-176.40970	1156.71716	1197.04407	-255.60745	1104.74634	1150.10132	-270.65637	967.93567	1260.36914	-243.84734	943.08948	1271.60974	-291.89813	921.88794	1285.10510	-242.97650	895.98499	1291.55042	-226.14261	844.04144	1296.17383	-239.51549	793.51434	1299.45667	-319.82678	847.86127	1266.78845	-297.17490	776.83807	1240.19189	-243.39651	802.33942	1086.02954	271.67606	1347.99060	1014.52026	273.86703	1181.54382	1009.14514	177.87563	1159.56860	1089.55676	277.50360	1090.97949	1016.53412	292.88181	993.59271	1105.58533	278.26086	927.07880	1078.35315	317.51636	896.17230	1121.38953	277.29379	869.23914	1137.01746	250.55951	823.16321	1137.68811	249.29102	772.30212	1090.78540	325.90680	793.48108	1081.44104	293.04684	737.03510	1078.32141	233.10196	740.37482	1001.31293	16.71293	1127.31616	1203.74304	-161.84308	1065.71021	1184.42615	188.79668	1081.20264	1192.22668	-141.86447	684.87341	1259.76514	-47.49415	588.89655	1217.24426	-108.05415	527.74573	1196.73303	-0.82225	528.28186	1216.55859	-61.58578	310.80176	1118.38953	-92.37846	84.44406	1129.60425	10.83663	107.65301	1053.55518	-46.87527	48.52359	1287.50391	-47.56924	40.22617	1224.05383	-12.41779	79.06230	1236.18188	201.16937	697.49115	1263.79919	191.24696	547.95422	1260.02039	78.74788	525.98889	1174.38049	148.42210	353.02942	959.36371	166.89336	196.40665	1018.07544	77.29626	194.02980	912.67010	94.82204	185.76230	1087.43445	159.08102	72.80405	1064.72986	118.88692	136.00687																																																																																																																															
